<svg width="182" height="54" viewBox="0 0 182 54" fill="none" xmlns="http://www.w3.org/2000/svg">
<g clip-path="url(#clip0_258_1542)">
<path d="M30.0272 17.5669L15.4309 26.0986L0.837891 34.6338L10.6795 17.5669L0.837891 0.5L15.4309 9.03172L30.0272 17.5669Z" fill="#FE0002"/>
<path d="M0.837891 36.4331L15.4309 27.9014L30.0272 19.3662L20.1856 36.4331L30.0272 53.5L15.4309 44.9683L0.837891 36.4331Z" fill="#FE9900"/>
<path d="M50.2206 21.7585C49.8543 21.4777 49.4195 21.3391 48.9163 21.3391C47.2287 21.3391 45.7259 21.8209 44.4046 22.7847C44.2882 21.7204 43.7439 21.1865 42.7752 21.1865C42.2412 21.1865 41.8098 21.3529 41.4846 21.6823C41.1594 22.0116 40.9951 22.4242 40.9951 22.913V37.7334C40.9951 38.191 41.1629 38.562 41.4949 38.8497C41.8304 39.1375 42.2309 39.2796 42.6964 39.2796C43.162 39.2796 43.5933 39.1271 43.9356 38.822C44.2779 38.5169 44.4491 38.1286 44.4491 37.6537V29.1254C44.4491 27.8566 44.8975 26.7646 45.791 25.8528C46.6844 24.9376 47.7833 24.4834 49.0875 24.4834C49.5393 24.4834 49.9296 24.3309 50.2651 24.0258C50.6005 23.7207 50.7648 23.3394 50.7648 22.8852C50.7648 22.4311 50.58 22.0359 50.2137 21.7551L50.2206 21.7585Z" fill="#101C70"/>
<path d="M69.0411 27.3046C69.0411 27.0515 68.9555 26.7222 68.7912 26.3131C68.2058 24.9437 67.1378 23.7685 65.5837 22.7839C64.0295 21.8028 62.4754 21.3105 60.9213 21.3105C58.33 21.3105 56.1391 22.1703 54.342 23.8864C52.5448 25.6024 51.6479 27.7067 51.6479 30.1924C51.6479 32.6781 52.5585 34.8275 54.3796 36.5886C56.2008 38.3497 58.3813 39.2268 60.9213 39.2268C62.2255 39.2268 63.4784 38.9772 64.68 38.478C65.8815 37.9788 66.8947 37.3166 67.7129 36.4846C68.3325 35.8606 68.6406 35.292 68.6406 34.7859C68.6406 34.3803 68.4968 34.0163 68.2161 33.6939C67.932 33.3714 67.5896 33.212 67.1891 33.212C66.84 33.212 66.4292 33.3714 65.9602 33.6939L64.6834 34.6576C63.4134 35.604 62.1605 36.079 60.9247 36.079C59.9046 36.079 58.9461 35.8155 58.0424 35.292C57.1387 34.7686 56.4233 34.0579 55.8858 33.16L67.3124 28.9478C68.466 28.5076 69.0411 27.9598 69.0411 27.2977V27.3046ZM55.0814 30.0191V29.8665C55.0814 28.4105 55.6462 27.1521 56.7724 26.0843C57.8987 25.0165 59.2166 24.4861 60.7193 24.4861C62.4412 24.4861 63.8173 25.1552 64.8545 26.4899L55.0814 30.0191Z" fill="#101C70"/>
<path d="M86.5198 21.6683C86.1775 21.3979 85.7804 21.2627 85.3285 21.2627C84.4933 21.2627 83.925 21.6163 83.6238 22.327L79.0881 33.1641L74.6517 22.379C74.5353 22.0566 74.3265 21.8 74.0252 21.6059C73.724 21.4118 73.3988 21.3147 73.0496 21.3147C72.5806 21.3147 72.163 21.4672 71.7967 21.7723C71.4305 22.0774 71.2456 22.4587 71.2456 22.9129C71.2456 23.0307 71.2867 23.2422 71.3723 23.5473L77.4621 38.1909C77.7462 38.9536 78.2905 39.3315 79.0915 39.3315C79.8925 39.3315 80.4026 38.9502 80.7209 38.1909L86.91 23.5473C86.9922 23.3289 87.0367 23.0723 87.0367 22.7846C87.0367 22.3097 86.8655 21.9387 86.5232 21.6683H86.5198Z" fill="#101C70"/>
<path d="M105.529 23.9041C103.707 22.1777 101.51 21.3145 98.9389 21.3145C96.3681 21.3145 94.1739 22.1742 92.3596 23.8903C90.5453 25.6063 89.6416 27.7106 89.6416 30.1963C89.6416 32.682 90.5693 34.8106 92.4246 36.5786C94.28 38.3467 96.5016 39.2307 99.0895 39.2307C101.677 39.2307 103.793 38.3502 105.58 36.5925C107.367 34.8314 108.26 32.7167 108.26 30.2483C108.26 27.78 107.35 25.6306 105.529 23.9041ZM102.971 34.5887C101.818 35.5871 100.466 36.0864 98.9115 36.0864C97.3574 36.0864 95.971 35.5525 94.903 34.4882C93.835 33.4204 93.301 32.11 93.301 30.5534C93.301 28.7923 93.7905 27.3397 94.7661 26.1887C95.7417 25.0378 97.1178 24.4623 98.8876 24.4623C100.657 24.4623 102.112 25.0724 103.149 26.2893C104.187 27.5061 104.704 29.0211 104.704 30.8307C104.704 32.3353 104.128 33.5903 102.975 34.5853L102.971 34.5887Z" fill="#101C70"/>
<path d="M120.865 21.7585C120.498 21.4777 120.064 21.3391 119.56 21.3391C117.873 21.3391 116.37 21.8209 115.049 22.7847C114.932 21.7204 114.388 21.1865 113.419 21.1865C112.885 21.1865 112.454 21.3529 112.129 21.6823C111.803 22.0116 111.639 22.4242 111.639 22.913V37.7334C111.639 38.191 111.807 38.562 112.139 38.8497C112.474 39.1375 112.875 39.2796 113.34 39.2796C113.806 39.2796 114.237 39.1271 114.58 38.822C114.922 38.5169 115.093 38.1286 115.093 37.6537V29.1254C115.093 27.8566 115.538 26.7646 116.435 25.8528C117.328 24.9376 118.427 24.4834 119.732 24.4834C120.183 24.4834 120.574 24.3309 120.909 24.0258C121.245 23.7207 121.409 23.3394 121.409 22.8852C121.409 22.4311 121.224 22.0359 120.858 21.7551L120.865 21.7585Z" fill="#101C70"/>
<path d="M127.054 21.3145C126.568 21.3145 126.177 21.4635 125.876 21.7582C125.575 22.0529 125.424 22.4481 125.424 22.9369V37.5805C125.424 38.0555 125.599 38.4472 125.951 38.7592C126.304 39.0713 126.729 39.2273 127.228 39.2273C127.728 39.2273 128.105 39.0713 128.406 38.7592C128.707 38.4472 128.858 38.052 128.858 37.5805V22.8849C128.858 22.41 128.683 22.0321 128.331 21.7443C127.978 21.4566 127.554 21.3145 127.054 21.3145Z" fill="#101C70"/>
<path d="M127.204 16.7451C126.636 16.7451 126.153 16.9358 125.749 17.3171C125.349 17.6985 125.147 18.1596 125.147 18.7004C125.147 19.2412 125.352 19.6953 125.76 20.0593C126.17 20.4234 126.657 20.6036 127.225 20.6036C127.793 20.6036 128.272 20.4234 128.666 20.0593C129.06 19.6953 129.255 19.2343 129.255 18.6761C129.255 18.118 129.049 17.6777 128.642 17.3067C128.231 16.9358 127.752 16.7486 127.201 16.7486L127.204 16.7451Z" fill="#101C70"/>
<path d="M148.157 21.4908C147.688 21.4908 147.281 21.6364 146.929 21.9207C146.579 22.2084 146.401 22.5793 146.401 23.037V31.4127C146.401 32.6156 145.973 33.6938 145.125 34.6472C144.272 35.604 143.228 36.0824 141.992 36.0824C140.757 36.0824 139.767 35.6179 138.922 34.6853C138.08 33.7562 137.655 32.6884 137.655 31.4889V23.037C137.655 22.5793 137.484 22.2084 137.142 21.9207C136.799 21.6329 136.392 21.4908 135.926 21.4908C135.461 21.4908 135.074 21.6364 134.725 21.9207C134.376 22.2084 134.198 22.5793 134.198 23.037V31.8183C134.198 33.8151 134.989 35.5451 136.567 37.008C138.145 38.471 139.969 39.2025 142.044 39.2025C143.68 39.2025 145.135 38.7033 146.405 37.7049V37.7811C146.405 38.1867 146.603 38.53 147.007 38.8073C147.408 39.0881 147.825 39.2268 148.26 39.2268C148.695 39.2268 149.071 39.0742 149.386 38.7692C149.705 38.4641 149.862 38.0758 149.862 37.6009V23.0335C149.862 22.5759 149.694 22.2049 149.362 21.9172C149.027 21.6294 148.626 21.4873 148.161 21.4873L148.157 21.4908Z" fill="#101C70"/>
<path d="M179.606 23.5092C178.121 22.0462 176.341 21.3147 174.27 21.3147C173.051 21.3147 171.877 21.5851 170.747 22.1259C169.621 22.6667 168.673 23.4052 167.902 24.3343C167.184 23.3878 166.287 22.6459 165.208 22.1121C164.13 21.5782 162.983 21.3112 161.761 21.3112C160.057 21.3112 158.619 21.7931 157.452 22.7569C157.383 22.3339 157.195 21.9803 156.887 21.6926C156.579 21.4048 156.205 21.2627 155.771 21.2627C155.302 21.2627 154.894 21.4222 154.542 21.7446C154.193 22.067 154.015 22.4553 154.015 22.9129V37.6571C154.015 38.0973 154.193 38.4683 154.552 38.7734C154.912 39.0784 155.326 39.231 155.791 39.231C156.226 39.231 156.609 39.0819 156.945 38.7872C157.28 38.4925 157.445 38.1147 157.445 37.6571V29.1288C157.445 27.9605 157.869 26.8962 158.722 25.9324C159.574 24.9687 160.601 24.4868 161.802 24.4868C163.004 24.4868 164.003 24.9444 164.897 25.8562C165.79 26.7714 166.239 27.801 166.239 28.952V37.6813C166.239 38.1216 166.417 38.4891 166.776 38.7838C167.136 39.0784 167.55 39.2275 168.015 39.2275C168.481 39.2275 168.895 39.0715 169.207 38.7595C169.515 38.4475 169.669 38.0523 169.669 37.5808V28.8515C169.669 27.7525 170.124 26.7506 171.035 25.8423C171.945 24.9375 172.976 24.4833 174.129 24.4833C175.283 24.4833 176.327 24.9687 177.162 25.9428C177.997 26.917 178.415 28.0021 178.415 29.2051V37.7576C178.415 38.1632 178.607 38.5099 178.99 38.7976C179.373 39.0854 179.791 39.2275 180.243 39.2275C180.695 39.2275 181.071 39.0784 181.369 38.7838C181.67 38.4891 181.821 38.0939 181.821 37.6051V28.7475C181.821 26.7159 181.078 24.9687 179.589 23.5057L179.606 23.5092Z" fill="#101C70"/>
</g>
<defs>
<clipPath id="clip0_258_1542">
<rect width="181" height="53" fill="white" transform="translate(0.837891 0.5)"/>
</clipPath>
</defs>
</svg>
