<svg width="19" height="19" viewBox="0 0 19 19" fill="none" xmlns="http://www.w3.org/2000/svg">
<g clip-path="url(#clip0_719_929)">
<path d="M14.1927 10.3084C14.2107 8.90592 14.9457 7.61067 16.1405 6.87642C15.3837 5.79492 14.1605 5.13417 12.8412 5.09292C11.453 4.94742 10.1075 5.92317 9.40023 5.92317C8.67948 5.92317 7.59048 5.10717 6.41748 5.13117C4.87473 5.18142 3.47073 6.03717 2.71998 7.38642C1.12173 10.1539 2.31348 14.2219 3.84498 16.4592C4.61148 17.5549 5.50623 18.7782 6.67848 18.7354C7.82523 18.6882 8.25348 18.0042 9.63723 18.0042C11.0082 18.0042 11.4102 18.7354 12.6057 18.7077C13.8357 18.6874 14.6112 17.6074 15.3507 16.5012C15.9012 15.7204 16.325 14.8579 16.6055 13.9452C15.1445 13.3272 14.1942 11.8954 14.1927 10.3084Z" fill="#040415" fill-opacity="0.8"/>
<path d="M11.9341 3.62158C12.6046 2.81608 12.9353 1.78108 12.8551 0.736328C11.8306 0.844328 10.8833 1.33408 10.2038 2.10808C9.53258 2.87233 9.19208 3.87133 9.25808 4.88683C10.2968 4.89733 11.2831 4.43083 11.9341 3.62158Z" fill="#040415" fill-opacity="0.8"/>
</g>
<defs>
<clipPath id="clip0_719_929">
<rect width="18" height="18" fill="white" transform="translate(0.285156 0.736328)"/>
</clipPath>
</defs>
</svg>
