<svg width="13" height="7" viewBox="0 0 13 7" fill="none" xmlns="http://www.w3.org/2000/svg">
<path d="M12.0428 1.14494C11.9654 1.06683 11.8732 1.00483 11.7717 0.962526C11.6701 0.920219 11.5612 0.898438 11.4512 0.898438C11.3412 0.898438 11.2322 0.920219 11.1307 0.962526C11.0292 1.00483 10.937 1.06683 10.8595 1.14494L7.04285 4.9616C6.96538 5.03971 6.87321 5.10171 6.77166 5.14401C6.67011 5.18632 6.56119 5.2081 6.45118 5.2081C6.34117 5.2081 6.23225 5.18632 6.1307 5.14401C6.02915 5.10171 5.93698 5.03971 5.85951 4.9616L2.04285 1.14494C1.96538 1.06683 1.87321 1.00483 1.77166 0.962526C1.67011 0.920219 1.56119 0.898438 1.45118 0.898438C1.34117 0.898438 1.23225 0.920219 1.1307 0.962526C1.02915 1.00483 0.936984 1.06683 0.859515 1.14494C0.704305 1.30107 0.617188 1.51228 0.617188 1.73244C0.617188 1.95259 0.704305 2.1638 0.859515 2.31994L4.68451 6.14494C5.15327 6.6131 5.78868 6.87607 6.45118 6.87607C7.11368 6.87607 7.7491 6.6131 8.21785 6.14494L12.0428 2.31994C12.1981 2.1638 12.2852 1.95259 12.2852 1.73244C12.2852 1.51228 12.1981 1.30107 12.0428 1.14494Z" fill="black"/>
</svg>
