<svg width="19" height="19" viewBox="0 0 19 19" fill="none" xmlns="http://www.w3.org/2000/svg">
<g clip-path="url(#clip0_719_947)">
<path d="M14.6484 2.98438H4.14844C3.15424 2.98557 2.20111 3.38104 1.4981 4.08404C0.795099 4.78704 0.399628 5.74018 0.398438 6.73438H18.3984C18.3972 5.74018 18.0018 4.78704 17.2988 4.08404C16.5958 3.38104 15.6426 2.98557 14.6484 2.98438Z" fill="#040415" fill-opacity="0.8"/>
<path d="M0.398438 12.7344C0.399628 13.7286 0.795099 14.6817 1.4981 15.3847C2.20111 16.0877 3.15424 16.4832 4.14844 16.4844H14.6484C15.6426 16.4832 16.5958 16.0877 17.2988 15.3847C18.0018 14.6817 18.3972 13.7286 18.3984 12.7344V8.23438H0.398438V12.7344ZM5.64844 12.3594C5.64844 12.5819 5.58246 12.7994 5.45884 12.9844C5.33522 13.1694 5.15952 13.3136 4.95396 13.3987C4.74839 13.4839 4.52219 13.5062 4.30396 13.4628C4.08573 13.4194 3.88528 13.3122 3.72794 13.1549C3.57061 12.9975 3.46346 12.7971 3.42005 12.5789C3.37665 12.3606 3.39892 12.1344 3.48407 11.9289C3.56922 11.7233 3.71342 11.5476 3.89842 11.424C4.08343 11.3004 4.30093 11.2344 4.52344 11.2344C4.82181 11.2344 5.10795 11.3529 5.31893 11.5639C5.52991 11.7749 5.64844 12.061 5.64844 12.3594Z" fill="#040415" fill-opacity="0.8"/>
</g>
<defs>
<clipPath id="clip0_719_947">
<rect width="18" height="18" fill="white" transform="translate(0.398438 0.734375)"/>
</clipPath>
</defs>
</svg>
