<svg width="19" height="19" viewBox="0 0 19 19" fill="none" xmlns="http://www.w3.org/2000/svg">
<g clip-path="url(#clip0_1346_8857)">
<path d="M9.125 18.5684C10.905 18.5684 12.6451 18.0405 14.1251 17.0516C15.6052 16.0627 16.7587 14.657 17.4399 13.0125C18.1211 11.368 18.2993 9.55838 17.9521 7.81255C17.6048 6.06672 16.7476 4.46307 15.489 3.2044C14.2303 1.94572 12.6266 1.08856 10.8808 0.741292C9.13498 0.394025 7.32538 0.572255 5.68084 1.25344C4.03631 1.93463 2.6307 3.08818 1.64177 4.56823C0.652837 6.04827 0.124995 7.78833 0.124995 9.56836C0.127576 11.9545 1.07662 14.2422 2.76388 15.9295C4.45115 17.6167 6.73884 18.5658 9.125 18.5684V18.5684ZM9.12499 2.06836C10.6084 2.06836 12.0584 2.50823 13.2918 3.33234C14.5251 4.15645 15.4864 5.32779 16.0541 6.69823C16.6217 8.06868 16.7703 9.57668 16.4809 11.0315C16.1915 12.4864 15.4772 13.8228 14.4283 14.8717C13.3794 15.9206 12.043 16.6349 10.5882 16.9242C9.13331 17.2136 7.62532 17.0651 6.25487 16.4975C4.88442 15.9298 3.71308 14.9685 2.88897 13.7351C2.06486 12.5018 1.625 11.0517 1.625 9.56836C1.62718 7.57991 2.41806 5.67352 3.8241 4.26747C5.23015 2.86142 7.13654 2.07054 9.12499 2.06836Z" fill="#040415" fill-opacity="0.6"/>
<path d="M9.125 14.8184C9.32391 14.8184 9.51468 14.7393 9.65533 14.5987C9.79598 14.458 9.875 14.2673 9.875 14.0684L9.875 8.06836C9.875 7.86945 9.79598 7.67868 9.65533 7.53803C9.51468 7.39738 9.32391 7.31836 9.125 7.31836C8.92609 7.31836 8.73532 7.39738 8.59467 7.53803C8.45402 7.67868 8.375 7.86945 8.375 8.06836L8.375 14.0684C8.375 14.2673 8.45402 14.458 8.59467 14.5987C8.73532 14.7393 8.92609 14.8184 9.125 14.8184Z" fill="#040415" fill-opacity="0.6"/>
<path d="M8.375 5.06836C8.375 5.48257 8.71079 5.81836 9.125 5.81836C9.53921 5.81836 9.875 5.48257 9.875 5.06836C9.875 4.65415 9.53921 4.31836 9.125 4.31836C8.71079 4.31836 8.375 4.65415 8.375 5.06836Z" fill="#040415" fill-opacity="0.6"/>
</g>
<defs>
<clipPath id="clip0_1346_8857">
<rect width="18" height="18" fill="white" transform="translate(18.125 18.5684) rotate(180)"/>
</clipPath>
</defs>
</svg>
